<svg fill="none" height="41" viewBox="0 0 106 41" width="106" xmlns="http://www.w3.org/2000/svg"><g clip-rule="evenodd" fill-rule="evenodd"><path d="m4.96115 1.79924s1.83909-1.338302 4.62394-1.338302c5.70541 0 7.93881 4.482212 7.93881 4.482212l-2.76 1.90095c-.0979-.10987-.2009-.23177-.3107-.36169-.8824-1.04431-2.2027-2.60699-4.88185-2.60699-3.01248 0-4.6102 1.80389-4.6102 1.80389zm14.07805-1.001675h3.6112v13.542035h-3.6112zm11.5473 14.764535h-11.5422v3.2882h11.5422zm37.9057-14.764535h3.6112v18.060235h-3.6112zm-34.6946 9.095965v-7.25417c-3.0065 2.06158-3.7607 4.45644-3.7607 7.82194 0 3.3656 3.3999 8.7016 9.424 8.7016 2.0281 0 3.7856-.6013 4.8103-1.3211v-3.7341c-.621.4398-2.3416 1.6278-4.7124 1.6278-3.4454 0-5.7612-2.4515-5.7612-5.84197zm1.1759-8.09427c1.0256-.71898 2.7831-1.320273 4.8103-1.320273 6.025 0 9.424 5.334333 9.424 8.699853 0 3.36556-.7542 5.76036-3.7606 7.82196v-7.25416c0-3.38958-2.3159-5.84114-5.7613-5.84114-2.3699 0-4.0914 1.18798-4.7124 1.62779zm19.3314 9.53054v-10.532055h-3.7152v10.438455c0 4.9538 3.1783 7.9414 7.7052 7.9414 1.3392 0 2.7204-.5352 2.7204-.5352v-3.3999s-1.0574.4656-2.613.4656c-1.4861 0-4.0974-.4011-4.0974-4.3783zm7.9331.0196v-.0198-10.532035h3.7159v10.438435c0 3.3097-1.4242 5.7355-3.7159 6.9853zm-47.3769 1.3694c-.6214 1.1228-1.5917 2.0125-2.7641 2.5344-1.1723.5219-2.4828.6475-3.73296.3579s-2.37189-.9787-3.1953-1.963-1.30366-2.2101-1.36799-3.4917v-7.85204c-1.11508.82221-2.03348 1.88196-2.68878 3.10262-.655308 1.22065-1.0311379 2.57168-1.1003092 3.95539-.0691712 1.38373.1700452 2.76553.7003472 4.04543s1.338432 2.426 2.365942 3.3553c1.02752.9293 2.24873 1.6186 3.5753 2.0182 1.32658.3995 2.72537.4992 4.09515.2918 1.3699-.2073 2.6765-.7165 3.8254-1.4907s2.1114-1.7941 2.8179-2.9859l-.0069-.0103zm58.5031-11.924626c.219-.012026.4389-.020615.6614-.020615 5.6453 0 10.222 3.152491 10.222 9.037441 0 5.8583-4.5767 9.0366-10.222 9.0366-.2225 0-.4424-.0086-.6614-.0206v-3.3355c.2173.0189.438.0292.6614.0292 3.5674 0 6.4587-2.0066 6.4587-5.7097 0-3.71857-2.8913-5.71057-6.4587-5.71057-.2234 0-.4441.01031-.6614.0292z" fill="#333333"/><path d="m82.6033 22.1445c-2.7849 0-4.624 1.3383-4.624 1.3383v3.881s1.5977-1.8039 4.6102-1.8039c2.6784 0 3.9988 1.5618 4.8811 2.6055.1101.1301.2133.2523.3115.3623l2.7608-1.8967s-2.2376-4.4865-7.9396-4.4865zm-31.3516.4278h-15.4026v3.2882h15.4026zm33.8594 14.3594c1.1716-.5203 2.142-1.4078 2.7646-2.5285l2.5271 1.8675.0069.0103c-.7066 1.1915-1.6692 2.2111-2.8181 2.9851-1.149.774-2.4556 1.2829-3.8253 1.4901s-2.7684.1074-4.0948-.2922-2.5475-1.0889-3.5749-2.0182-1.8354-2.0753-2.3657-3.3551c-.5302-1.2798-.7695-2.6614-.7004-4.045s.4449-2.7345 1.1-3.9551c.6552-1.2206 1.5734-2.2804 2.6882-3.1027v7.8521c.066 1.2802.5469 2.5042 1.3701 3.487s1.9438 1.6709 3.1927 1.9604c1.2488.2895 2.558.1647 3.7296-.3557zm-81.32461-14.1885h-3.611197v18.0603h3.611197zm13.87171 0h3.6121v18.0603h-3.6121zm53.7051-.1974h-3.612v18.0603h3.612zm-29.5751 4.5388h3.612v13.7189h-3.612zm64.2118-4.5123h-15.4021v3.2882h15.4021zm-9.463 4.5123h3.611v13.7189h-3.611zm-90.82794-4.3663c-.22248 0-.44238.0086-.66143.0215v3.3355c.21733-.0189.43809-.0292.66143-.0292 3.56652 0 6.45874 1.992 6.45874 5.7097 0 3.7039-2.89222 5.7105-6.45874 5.7105-.22334 0-.44382-.01-.66143-.03v3.3363c.21905.012.43895.0206.66143.0206 5.64524 0 10.22194-3.1783 10.22194-9.0374 0-5.885-4.5767-9.0375-10.22194-9.0375zm16.97714 14.164 2.5177-1.8571s1.4259 2.619 4.636 2.619c.3503-.0135.6991-.0529 1.0436-.1176v3.1713c-.4136.0693-.8322.1041-1.2515.104-2.9343 0-6.0731-1.669-6.9458-3.9196zm10.2425-9.3966 2.4499-1.7789-.0215-.0516c-.8341-1.9937-3.07-3.4213-5.6968-3.4213-.3854.0006-.77.0325-1.1502.0953v3.2547c.3-.0333.6018-.0491.9037-.0472 2.6749 0 3.5149 1.949 3.5149 1.949zm-5.6616-.3315c-.0026.7061.0782 1.4929 2.528 2.4378 5.8875 2.2789 6.0842 4.2443 6.0885 5.7338 0 2.9953-1.9679 4.6222-3.6704 4.9606v-4.5208c0-1.4182-1.6459-2.1587-2.486-2.4791l-.0041-.0015c-.8423-.3213-2.7905-1.0643-4.052-2.0162l-.1718-.1444c-1.1614-.9388-1.8846-2.2668-1.8846-3.7383 0-2.1208 1.5049-3.941 3.6524-4.7313zm31.5946 3.7633h-2.0444v3.2161s1.6751-.0378 2.6199-.0378c.7567.0001 1.506-.1489 2.2051-.4384.6991-.2896 1.3343-.714 1.8693-1.2491s.9594-1.1704 1.2488-1.8695c.2895-.6991.4383-1.4485.4381-2.2051 0-3.1783-2.577-5.7879-5.7613-5.7879h-7.5668v18.0603h3.6078v-14.8606h3.3792c.6853 0 1.3425.2722 1.8271.7568.4845.4846.7568 1.1418.7568 1.8271 0 .6852-.2723 1.3424-.7568 1.827-.4846.4846-1.1418.7568-1.8271.7568zm4.1145 9.6515-3.7606-5.1617 3.5905-.7697 4.2108 5.9314z" fill="#333333"/></g></svg>