<svg width="106" height="41" viewBox="0 0 106 41" fill="none" xmlns="http://www.w3.org/2000/svg">
<path fill-rule="evenodd" clip-rule="evenodd" d="M4.96115 1.79924C4.96115 1.79924 6.80024 0.460938 9.58509 0.460938C15.2905 0.460938 17.5239 4.94315 17.5239 4.94315L14.7639 6.8441C14.666 6.73423 14.563 6.61233 14.4532 6.48241C13.5708 5.4381 12.2505 3.87542 9.57135 3.87542C6.55887 3.87542 4.96115 5.67931 4.96115 5.67931V1.79924ZM19.0392 0.797565H22.6504V14.3396H19.0392V0.797565ZM30.5865 15.5621H19.0443V18.8503H30.5865V15.5621ZM68.4922 0.797565H72.1034V18.8578H68.4922V0.797565ZM33.7976 9.89353V2.63936C30.7911 4.70094 30.0369 7.0958 30.0369 10.4613C30.0369 13.8269 33.4368 19.1629 39.4609 19.1629C41.489 19.1629 43.2465 18.5616 44.2712 17.8418V14.1077C43.6502 14.5475 41.9296 15.7355 39.5588 15.7355C36.1134 15.7355 33.7976 13.284 33.7976 9.89353ZM34.9735 1.79926C35.9991 1.08028 37.7566 0.478987 39.7838 0.478987C45.8088 0.478987 49.2078 5.81332 49.2078 9.17884C49.2078 12.5444 48.4536 14.9392 45.4472 17.0008V9.74664C45.4472 6.35706 43.1313 3.9055 39.6859 3.9055C37.316 3.9055 35.5945 5.09348 34.9735 5.53329V1.79926ZM54.3049 11.3298V0.797745H50.5897V11.2362C50.5897 16.19 53.768 19.1776 58.2949 19.1776C59.6341 19.1776 61.0153 18.6424 61.0153 18.6424V15.2425C61.0153 15.2425 59.9579 15.7081 58.4023 15.7081C56.9162 15.7081 54.3049 15.307 54.3049 11.3298ZM62.238 11.3494V11.3296V0.797565H65.9539V11.236C65.9539 14.5457 64.5297 16.9715 62.238 18.2213V11.3494ZM14.8611 12.7188C14.2397 13.8416 13.2694 14.7313 12.097 15.2532C10.9247 15.7751 9.6142 15.9007 8.36404 15.6111C7.11388 15.3215 5.99215 14.6324 5.16874 13.6481C4.34533 12.6638 3.86508 11.438 3.80075 10.1564V2.30436C2.68567 3.12657 1.76727 4.18632 1.11197 5.40698C0.456662 6.62763 0.0808321 7.97866 0.0116608 9.36237C-0.0575104 10.7461 0.181706 12.1279 0.712008 13.4078C1.24231 14.6877 2.05044 15.8338 3.07795 16.7631C4.10547 17.6924 5.32668 18.3817 6.65325 18.7813C7.97983 19.1808 9.37862 19.2805 10.7484 19.0731C12.1183 18.8658 13.4249 18.3566 14.5738 17.5824C15.7227 16.8082 16.6852 15.7883 17.3917 14.5965L17.3848 14.5862L14.8611 12.7188ZM73.3642 0.794174C73.5832 0.782148 73.8031 0.773559 74.0256 0.773559C79.6709 0.773559 84.2476 3.92605 84.2476 9.811C84.2476 15.6693 79.6709 18.8476 74.0256 18.8476C73.8031 18.8476 73.5832 18.839 73.3642 18.827V15.4915C73.5815 15.5104 73.8022 15.5207 74.0256 15.5207C77.593 15.5207 80.4843 13.5141 80.4843 9.811C80.4843 6.09243 77.593 4.10043 74.0256 4.10043C73.8022 4.10043 73.5815 4.11074 73.3642 4.12963V0.794174Z" fill="#ECE9E5"/>
<path fill-rule="evenodd" clip-rule="evenodd" d="M82.6033 22.1445C79.8184 22.1445 77.9793 23.4828 77.9793 23.4828V27.3638C77.9793 27.3638 79.577 25.5599 82.5895 25.5599C85.2679 25.5599 86.5883 27.1217 87.4706 28.1654C87.5807 28.2955 87.6839 28.4177 87.7821 28.5277L90.5429 26.631C90.5429 26.631 88.3053 22.1445 82.6033 22.1445ZM51.2517 22.5723H35.8491V25.8605H51.2517V22.5723ZM85.1111 36.9317C86.2827 36.4114 87.2531 35.5239 87.8757 34.4032L90.4028 36.2707L90.4097 36.281C89.7031 37.4725 88.7405 38.4921 87.5916 39.2661C86.4426 40.0401 85.136 40.549 83.7663 40.7562C82.3966 40.9634 80.9979 40.8636 79.6715 40.464C78.3451 40.0644 77.124 39.3751 76.0966 38.4458C75.0692 37.5165 74.2612 36.3705 73.7309 35.0907C73.2007 33.8109 72.9614 32.4293 73.0305 31.0457C73.0996 29.6621 73.4754 28.3112 74.1305 27.0906C74.7857 25.87 75.7039 24.8102 76.8187 23.9879V31.84C76.8847 33.1202 77.3656 34.3442 78.1888 35.327C79.012 36.3098 80.1326 36.9979 81.3815 37.2874C82.6303 37.5769 83.9395 37.4521 85.1111 36.9317ZM3.78649 22.7432H0.175293V40.8035H3.78649V22.7432ZM17.6582 22.7432H21.2703V40.8035H17.6582V22.7432ZM71.3633 22.5458H67.7513V40.6061H71.3633V22.5458ZM41.7882 27.0846H45.4002V40.8035H41.7882V27.0846ZM106 22.5723H90.5979V25.8605H106V22.5723ZM96.537 27.0846H100.148V40.8035H96.537V27.0846ZM5.70906 22.7183C5.48658 22.7183 5.26668 22.7269 5.04763 22.7398V26.0753C5.26496 26.0564 5.48572 26.0461 5.70906 26.0461C9.27558 26.0461 12.1678 28.0381 12.1678 31.7558C12.1678 35.4597 9.27558 37.4663 5.70906 37.4663C5.48572 37.4663 5.26524 37.4563 5.04763 37.4363V40.7726C5.26668 40.7846 5.48658 40.7932 5.70906 40.7932C11.3543 40.7932 15.931 37.6149 15.931 31.7558C15.931 25.8708 11.3543 22.7183 5.70906 22.7183ZM22.6862 36.8823L25.2039 35.0252C25.2039 35.0252 26.6298 37.6442 29.8399 37.6442C30.1902 37.6307 30.539 37.5913 30.8835 37.5266V40.6979C30.4699 40.7672 30.0513 40.802 29.632 40.8019C26.6977 40.8019 23.5589 39.1329 22.6862 36.8823ZM32.9287 27.4857L35.3786 25.7068L35.3571 25.6552C34.523 23.6615 32.2871 22.2339 29.6603 22.2339C29.2749 22.2345 28.8903 22.2664 28.5101 22.3292V25.5839C28.8101 25.5506 29.1119 25.5348 29.4138 25.5367C32.0887 25.5367 32.9287 27.4857 32.9287 27.4857ZM27.2671 27.1542C27.2645 27.8603 27.3453 28.6471 29.7951 29.592C35.6826 31.8709 35.8793 33.8363 35.8836 35.3258C35.8836 38.3211 33.9157 39.948 32.2132 40.2864V35.7656C32.2132 34.3474 30.5673 33.6069 29.7272 33.2865L29.7231 33.285C28.8808 32.9637 26.9326 32.2207 25.6711 31.2688L25.4993 31.1244C24.3379 30.1856 23.6147 28.8576 23.6147 27.3861C23.6147 25.2653 25.1196 23.4451 27.2671 22.6548V27.1542ZM58.8617 30.9175H56.8173V34.1336C56.8173 34.1336 58.4924 34.0958 59.4372 34.0958C60.1939 34.0959 60.9432 33.9469 61.6423 33.6574C62.3414 33.3678 62.9766 32.9434 63.5116 32.4083C64.0466 31.8732 64.471 31.2379 64.7604 30.5388C65.0499 29.8397 65.1987 29.0903 65.1985 28.3337C65.1985 25.1554 62.6215 22.5458 59.4372 22.5458H51.8704V40.6061H55.4782V25.7455H58.8574C59.5427 25.7455 60.1999 26.0177 60.6845 26.5023C61.169 26.9869 61.4413 27.6441 61.4413 28.3294C61.4413 29.0146 61.169 29.6718 60.6845 30.1564C60.1999 30.641 59.5427 30.9132 58.8574 30.9132L58.8617 30.9175ZM62.9762 40.569L59.2156 35.4073L62.8061 34.6376L67.0169 40.569H62.9762Z" fill="#00E6EC"/>
</svg>
